# Blender v2.79 (sub 0) OBJ File: 'cave_1.blend'
# www.blender.org
mtllib cave_1.mtl
o Cube
v 1.000000 0.072508 -1.000000
v 1.000000 0.072508 1.000000
v -1.000000 0.072508 1.000000
v -1.000000 0.072508 -1.000000
v 1.000000 2.072508 -0.999999
v 0.999999 2.072508 1.000001
v -1.000000 2.072508 1.000000
v -1.000000 2.072508 -1.000000
v 1.000000 0.072508 -0.612587
v 1.000000 0.072508 0.581793
v 1.000000 0.685124 0.548416
v 1.000000 1.015833 0.426463
v 1.000000 1.148515 0.311430
v 1.000000 1.224220 0.109756
v 1.000000 1.234531 -0.139518
v 1.000000 1.145328 -0.374545
v 1.000000 0.976602 -0.434189
v 1.000000 0.614963 -0.474904
v 1.000000 0.340207 -0.566967
v 1.000000 0.174154 -0.553064
v 0.387233 0.072508 1.000000
v -0.661386 0.072508 1.000000
v -0.558016 0.444450 1.000000
v -0.379417 0.919618 1.000000
v -0.143705 1.248000 1.000000
v 0.125284 1.500929 1.000000
v 0.408406 1.479402 1.000000
v 0.530270 1.241052 1.000000
v 0.533151 0.872263 1.000000
v 0.419644 0.366552 1.000000
v -1.000000 0.072508 0.512116
v -1.000000 0.072508 -0.551930
v -1.000000 0.446208 -0.554212
v -1.000000 0.891454 -0.403863
v -1.000000 1.220625 -0.257765
v -1.000000 1.488721 0.111886
v -1.000000 1.320205 0.343832
v -1.000000 1.057026 0.507866
v -1.000000 0.614943 0.571617
v -1.000000 0.160276 0.509089
v 0.578561 0.072508 -1.000000
v -0.527817 0.072508 -1.000000
v 0.559430 0.412220 -1.000000
v 0.406876 1.210449 -1.000000
v 0.308395 1.582964 -1.000000
v -0.163280 1.593594 -1.000000
v -0.355544 1.330832 -1.000000
v -0.448672 0.861735 -1.000000
v -0.510170 0.438633 -1.000000
vn 0.0000 -1.0000 0.0000
vn 0.0000 1.0000 0.0000
vn 1.0000 0.0000 0.0000
vn -0.0000 -0.0000 1.0000
vn -1.0000 -0.0000 -0.0000
vn 0.0000 0.0000 -1.0000
usemtl Material
s off
f 1//1 9//1 10//1 2//1 21//1 22//1 3//1 31//1 32//1 4//1 42//1 41//1
f 5//2 8//2 7//2 6//2
f 1//3 5//3 6//3 2//3 10//3 11//3 12//3 13//3 14//3 15//3 16//3 17//3 18//3 19//3 20//3 9//3
f 2//4 6//4 7//4 3//4 22//4 23//4 24//4 25//4 26//4 27//4 28//4 29//4 30//4 21//4
f 3//5 7//5 8//5 4//5 32//5 33//5 34//5 35//5 36//5 37//5 38//5 39//5 40//5 31//5
f 5//6 1//6 41//6 43//6 44//6 45//6 46//6 47//6 48//6 49//6 42//6 4//6 8//6
